/vscmnt/brussel_pixiu_data/_data_brussel/112/vsc11236/PredSimResults/SUBJ09mtu3D/worker2.mot
version=1
nRows=10
nColumns=50
inDegrees=yes
endheader
                time	         pelvis_tilt	         pelvis_list	     pelvis_rotation	           pelvis_tx	           pelvis_ty	           pelvis_tz	       hip_flexion_r	     hip_adduction_r	      hip_rotation_r	        knee_angle_r	       ankle_angle_r	         mtp_angle_r	       hip_flexion_l	     hip_adduction_l	      hip_rotation_l	        knee_angle_l	       ankle_angle_l	         mtp_angle_l	    lumbar_extension	      lumbar_bending	     lumbar_rotation	 ercspn_r/activation	 intobl_r/activation	 extobl_r/activation	    abd_r/activation	    add_r/activation	hamstrings_r/activation	bifemsh_r/activation	glut_max_r/activation	iliopsoas_r/activation	rect_fem_r/activation	  vasti_r/activation	gastroc_r/activation	 soleus_r/activation	tib_ant_r/activation	 ercspn_l/activation	 intobl_l/activation	 extobl_l/activation	    abd_l/activation	    add_l/activation	hamstrings_l/activation	bifemsh_l/activation	glut_max_l/activation	iliopsoas_l/activation	rect_fem_l/activation	  vasti_l/activation	gastroc_l/activation	 soleus_l/activation	tib_ant_l/activation	
          0.00000000	        -11.30633607	         -5.15197239	          1.63788574	          0.00000000	          1.03833394	         -0.00239480	         42.63951718	          5.76077698	          2.14865377	        -26.15775246	        -27.96480543	          0.48848458	         -1.11301256	         -4.27251157	          3.65335683	        -14.57848261	        -26.17823130	         60.13698869	         -5.01691296	          5.36864095	         -1.11001752	          0.19767292	          0.10119508	          0.01000000	          0.03212098	          0.09137848	          0.17670905	          0.10823151	          0.09103539	          0.01000001	          0.01537853	          0.01000000	          0.01000000	          0.00999999	          0.01359225	          0.18205509	          0.00999999	          0.01000000	          0.03580052	          0.00999999	          0.01000000	          0.01000005	          0.02002707	          0.01000015	          0.84531529	          0.05063216	          0.16015712	          0.22655533	          0.01000007	
          0.00995142	        -11.26833271	         -5.41211388	          1.78085994	          0.01623669	          1.03602435	         -0.00149096	         41.93036285	          6.24884610	          2.93840470	        -26.75974413	        -27.06015275	          1.05618700	         -2.62010492	         -4.67819887	          3.07878249	        -13.47410027	        -26.61647992	         60.00205418	         -4.59335493	          5.73350909	         -1.43385930	          0.16955474	          0.08679888	          0.01000000	          0.06463807	          0.08455470	          0.15157009	          0.09283430	          0.13208014	          0.01000001	          0.01319076	          0.10026729	          0.02491682	          0.03979254	          0.01165859	          0.19565512	          0.01000000	          0.01000000	          0.03070748	          0.01000000	          0.01000002	          0.01000006	          0.01717799	          0.01000002	          0.78034957	          0.05377813	          0.13737358	          0.22949429	          0.01000010	
          0.01990285	        -11.23505696	         -5.66891767	          1.89810129	          0.03269613	          1.03358278	         -0.00058053	         41.19045926	          6.68141942	          3.64298771	        -27.77604207	        -25.25736094	          2.89581983	         -4.10179776	         -5.06652479	          2.46764379	        -12.44191072	        -27.03746255	         59.67628877	         -4.13525274	          6.09788844	         -1.74654258	          0.15552492	          0.08416580	          0.01000000	          0.09410005	          0.07651575	          0.13000744	          0.07962753	          0.18475499	          0.01000000	          0.01131422	          0.09540212	          0.02137212	          0.03413158	          0.01000002	          0.18609759	          0.00999999	          0.01000000	          0.02633897	          0.01000000	          0.01000004	          0.01000004	          0.01473422	          0.01000001	          0.66933556	          0.04672787	          0.11783059	          0.23238503	          0.01000008	
          0.02985427	        -11.21036021	         -5.90928098	          1.99332798	          0.04920919	          1.03113909	          0.00036255	         40.36803029	          7.08886053	          4.25769125	        -28.77360491	        -23.50038634	          5.91010569	         -5.49019244	         -5.42172032	          1.84067307	        -11.58066240	        -27.42172567	         59.10379664	         -3.66210864	          6.44231895	         -2.05152035	          0.15560962	          0.10893232	          0.01000000	          0.11802378	          0.07231037	          0.11151233	          0.06829959	          0.21983174	          0.01000000	          0.01000000	          0.09410791	          0.01833169	          0.02927596	          0.01000000	          0.19011073	          0.00999999	          0.01000000	          0.02259194	          0.01000000	          0.01000003	          0.01000005	          0.01263810	          0.01000001	          0.57411461	          0.04008028	          0.10106781	          0.23512972	          0.01000009	
          0.03980569	        -11.19643901	         -6.12278429	          2.06257799	          0.06559061	          1.02878533	          0.00132762	         39.51461166	          7.46950885	          4.78471004	        -29.65179736	        -22.17129354	          9.85172253	         -6.70703667	         -5.73115617	          1.21051257	        -11.00479950	        -27.76669286	         58.30373491	         -3.19644705	          6.75849460	         -2.34504676	          0.15207397	          0.11742541	          0.01000000	          0.13508541	          0.06812069	          0.09564837	          0.05858318	          0.24781802	          0.01000000	          0.01000000	          0.10324910	          0.01572379	          0.02511110	          0.01000002	          0.20068875	          0.00999999	          0.01000000	          0.01937797	          0.01000000	          0.01000002	          0.01000005	          0.01084018	          0.01000000	          0.49243997	          0.03437839	          0.08668972	          0.23574528	          0.01000008	
          0.04975712	        -11.19497596	         -6.30636857	          2.10466025	          0.08170599	          1.02660422	          0.00230128	         38.67363538	          7.82344026	          5.23556874	        -30.41121830	        -21.26763034	         14.32787031	         -7.68431456	         -5.99338453	          0.58744794	        -10.81165461	        -28.07472583	         57.30774327	         -2.75352014	          7.04604636	         -2.62487296	          0.15656235	          0.10548097	          0.01000000	          0.15114897	          0.06569405	          0.08372258	          0.05024905	          0.27691238	          0.01000000	          0.01000000	          0.11837512	          0.01348690	          0.02153875	          0.01000004	          0.20615987	          0.00999999	          0.01000000	          0.01662123	          0.00999999	          0.01000001	          0.01000011	          0.01000000	          0.01000005	          0.42238452	          0.02948765	          0.07435708	          0.23676470	          0.01000013	
          0.05970854	        -11.20683807	         -6.45371736	          2.11989835	          0.09747588	          1.02466018	          0.00327133	         37.85978182	          8.14376489	          5.61365907	        -31.06093684	        -20.65392751	         18.92394167	         -8.36247534	         -6.20626158	         -0.02054927	        -11.09080401	        -28.34299924	         56.13105975	         -2.34175819	          7.29897037	         -2.88697744	          0.14671203	          0.09047506	          0.01000000	          0.17431718	          0.09020097	          0.08382559	          0.04310054	          0.28664419	          0.01000000	          0.01000000	          0.12549287	          0.01156824	          0.01847461	          0.01165978	          0.20075046	          0.01000000	          0.01000000	          0.01425666	          0.00999999	          0.01000003	          0.01000008	          0.01000000	          0.06994867	          0.36229529	          0.02529268	          0.06377891	          0.23832425	          0.01000011	
          0.06965997	        -11.23222981	         -6.56803766	          2.11196669	          0.11282593	          1.02300420	          0.00423160	         37.07375827	          8.43018815	          5.92125785	        -31.59981239	        -20.17098193	         23.21813975	         -8.65909649	         -6.38188978	         -0.58941617	        -11.97535966	        -28.56031798	         54.77786515	         -1.96972108	          7.52045406	         -3.12869851	          0.14324554	          0.07760391	          0.01000000	          0.22091628	          0.11472218	          0.09371232	          0.03696899	          0.27930085	          0.01000000	          0.01000000	          0.15937052	          0.01000005	          0.01584638	          0.01000112	          0.19814614	          0.01000000	          0.01000000	          0.01222848	          0.01000000	          0.01000039	          0.01000008	          0.01000000	          0.13024952	          0.31075447	          0.02169450	          0.05470560	          0.23952120	          0.01000011	
          0.07961139	        -11.27084397	         -6.64872681	          2.08172971	          0.12768508	          1.02170627	          0.00517063	         36.29955924	          8.66933549	          6.11380644	        -31.99877159	        -19.66347181	         26.80730407	         -8.49805879	         -6.52957130	         -1.10719511	        -13.57701404	        -28.75422902	         53.22699154	         -1.64677723	          7.71035802	         -3.34463417	          0.13871518	          0.06656383	          0.01000000	          0.26440722	          0.12946941	          0.10018610	          0.03170972	          0.27437106	          0.01000000	          0.01000000	          0.19301945	          0.01000013	          0.01359204	          0.01000006	          0.19719075	          0.01000000	          0.01000001	          0.01048884	          0.00999999	          0.01000004	          0.01007330	          0.00999999	          0.17238895	          0.26654595	          0.01860820	          0.04692308	          0.23991581	          0.01000021	
          0.08956281	        -11.32183791	         -6.69912401	          2.03054106	          0.14198049	          1.02083589	          0.00608149	         35.53285895	          8.86126842	          6.20761318	        -32.25105012	        -19.26129229	         29.98802831	         -7.82565726	         -6.66457750	         -1.58127621	        -15.96165743	        -28.96743349	         51.38714852	         -1.38253474	          7.87257082	         -3.53033065	          0.13722703	          0.05709434	          0.01000000	          0.29668707	          0.13668071	          0.10606619	          0.02719865	          0.27085127	          0.01000000	          0.01000000	          0.21595163	          0.01000007	          0.01165842	          0.01000239	          0.20811399	          0.01000000	          0.01000001	          0.00999999	          0.01000000	          0.01000003	          0.04576611	          0.00999999	          0.18401671	          0.22862661	          0.01596096	          0.04024772	          0.24188050	          0.01000021	
